# xmcd
#
# Track frame offsets:
#	150
#	13297
#	29235
#
# Disc length: 649 seconds
#
# Revision: 0
# Processed by: cddbd v1.5PL3 Copyright (c) Steve Scherf et al.
# Submitted via: dBpowerAMP V4.0
#
DISCID=25028703
DTITLE=Kentucky Riders - River Of Tears
DYEAR=1900
DGENRE=Country
TTITLE0=River Of Tears
TTITLE1=Running From Love
TTITLE2=Moonshine Lady
EXTD=
EXTT0=
EXTT1=
EXTT2=
PLAYORDER=
